<svg width="0" height="0" class="hidden">
  <symbol xmlns="http://www.w3.org/2000/svg" viewBox="0 0 64 64" id="question-1">
    <title>Question</title>
    <desc>A line styled icon from Orion Icon Library.</desc>
    <path data-name="layer2"
    d="M22 21.41c0-3.6 2.758-9.41 10.587-9.41C40.417 12 42 19.035 42 21.41s-.738 5.116-5.07 9.448C32.595 35.19 32 37.44 32 39.5V42"
    fill="none" stroke="#033838" stroke-miterlimit="10" stroke-width="2" stroke-linejoin="round"
    stroke-linecap="round"></path>
    <circle data-name="layer1" cx="32" cy="49" r="3" fill="none" stroke="#033838"
    stroke-miterlimit="10" stroke-width="2" stroke-linejoin="round" stroke-linecap="round"></circle>
  </symbol>
  <symbol xmlns="http://www.w3.org/2000/svg" viewBox="0 0 64 64" id="mental-health-1">
    <title>Mental Health</title>
    <desc>A line styled icon from Orion Icon Library.</desc>
    <path data-name="layer2"
    d="M32.748 61.828a.249.249 0 0 0 .37-.107C33.853 60.01 37.775 51 39 51c2 0 5.938 2 9 2s2.488-7.083 3.445-9.973S53 38.445 53 37c3.828-.385 3.134-1.581 2.655-2.737S51 27.867 51 27c0-1 1-4.074 1-6 0-8.764-5-19-21.991-19C13.359 2 8 14.258 8 21s1.895 11.785 4 14 4 4.244 4 8a9.538 9.538 0 0 1-2 6z"
    fill="none" stroke="#033838" stroke-linecap="round" stroke-miterlimit="10"
    stroke-width="2" stroke-linejoin="round"></path>
    <path data-name="layer1" d="M25 8c5.965-1.193 17.762-.476 20 10 .864 4.119 1.2 8.237-8 9s-13.288 1.22-14 3-1 6-3 6a1.789 1.789 0 0 1-2-2c0-1.856-1-4-2-6-.834-1.668-6-17 9-20z"
    fill="none" stroke="#033838" stroke-linecap="round" stroke-miterlimit="10"
    stroke-width="2" stroke-linejoin="round"></path>
    <path data-name="layer1" d="M34 22c2-2 6-2 6.834 1.386a2.636 2.636 0 0 1-1.7 3.35M31 21c-3 1-3.831 4.262-2 6m7.91-18.194c1.257 3.141.378 5.821-1.91 7.194m7.4-3.4c.658 3.362-.4 5.4-3.4 5.4M30.292 7.625A4.3 4.3 0 0 1 32 13m-2 4c-1-2-4.373-2.034-6 0m-2.156-8c3.407.458 6.023 3.093 5.133 6.5M22 16c-3-.813-2.953-4.229-2.752-5.719M19 19a2.558 2.558 0 0 0-4.422 0M25 20c-2 0-4 3-1 5m-1.488-2.847c-2.7-.407-6.491 1.158-6.778 5"
    fill="none" stroke="#033838" stroke-linecap="round" stroke-miterlimit="10"
    stroke-width="2" stroke-linejoin="round"></path>
  </symbol>
  <symbol xmlns="http://www.w3.org/2000/svg" viewBox="0 0 64 64" id="money-bag-1">
    <title>Money Bag</title>
    <desc>A line styled icon from Orion Icon Library.</desc>
    <path data-name="layer2"
    d="M38 18s18 14 18 34a10 10 0 0 1-10 10H18A10 10 0 0 1 8 52c0-20 18-34 18-34S14 7.6 14 4s8 2 12 2c5.7 0 6.3-4 10-4s4.1 4.1 10 4.1c2.3 0-2 6-8 11.9z"
    fill="none" stroke="#033838" stroke-miterlimit="10" stroke-width="2" stroke-linejoin="round"
    stroke-linecap="round"></path>
    <path data-name="layer2" d="M26 18h13a19.2 19.2 0 0 0 13-4m-2 8a6.5 6.5 0 0 1 6 3"
    fill="none" stroke="#033838" stroke-miterlimit="10" stroke-width="2" stroke-linejoin="round"
    stroke-linecap="round"></path>
    <path data-name="layer1" d="M37.9 34a6 6 0 0 0-5.9-5c-3.3 0-6 2.2-6 5.5s3 4.8 6 5.5m-6 5a6 6 0 0 0 6 6c3.3 0 6-2.2 6-5.5s-3-4.8-6-5.5m0-11v-3m0 28v-3"
    fill="none" stroke="#033838" stroke-miterlimit="10" stroke-width="2" stroke-linejoin="round"
    stroke-linecap="round"></path>
  </symbol>
</svg>